<svg width="22" height="17" viewBox="0 0 22 17" fill="none" xmlns="http://www.w3.org/2000/svg">
<path d="M21.6591 1.97734L16.4148 0.0369308C16.5197 0.0893742 16.2575 -0.0679559 16.0477 0.0369308L10.9869 1.89867L5.95232 0.0369308C6.05721 0.0893742 5.79499 -0.0679559 5.58522 0.0369308L0.340882 1.97734C0.131108 2.056 0 2.23955 0 2.47555V16.2682C0 17.1859 1.15375 16.5828 0.707986 16.7664L5.74255 14.9046L10.7771 16.7664C11.0131 16.845 11.2753 16.7139 11.1704 16.7664L16.2312 14.9046L21.292 16.7664C21.6329 16.8975 22 16.6615 22 16.2682V2.47555C22 2.26577 21.8689 2.056 21.6591 1.97734ZM5.21812 13.9869L1.02265 15.4815V2.81643L5.21812 1.29557V13.9869ZM10.4625 15.4815L6.26698 13.9606V1.29557L10.4625 2.81643V15.4815ZM15.7068 13.9869L11.5113 15.4815V2.81643L15.7068 1.29557V13.9869ZM20.9511 15.4815L16.7557 13.9606V1.29557L20.9511 2.81643V15.4815Z" fill="#AED134"/>
</svg>
