<svg width="20" height="20" viewBox="0 0 20 20" fill="none" xmlns="http://www.w3.org/2000/svg">
<path d="M13.7294 12.7613C14.8442 11.4118 15.5482 9.68097 15.5482 7.77411C15.5482 3.49102 12.0572 0 7.77411 0C3.49102 0 0 3.49102 0 7.77411C0 12.0572 3.49102 15.5482 7.77411 15.5482C9.65163 15.5482 11.4118 14.8735 12.7613 13.7294L18.8045 19.7726C18.9512 19.9193 19.1272 19.978 19.3033 19.978C19.4793 19.978 19.6553 19.9193 19.802 19.7726C20.066 19.5086 20.066 19.0392 19.802 18.7752L13.7294 12.7613ZM7.74478 14.1401C4.22442 14.1401 1.3788 11.2945 1.3788 7.77411C1.3788 4.25376 4.22442 1.40814 7.74478 1.40814C11.2651 1.40814 14.1107 4.25376 14.1107 7.77411C14.1107 11.2945 11.2651 14.1401 7.74478 14.1401Z" fill="#AED134"/>
</svg>
